<svg xmlns="http://www.w3.org/2000/svg" xmlns:xlink="http://www.w3.org/1999/xlink" width="500" zoomAndPan="magnify" viewBox="0 0 375 374.999991" height="500" preserveAspectRatio="xMidYMid meet" version="1.0"><defs><clipPath id="cf0a958c65"><path d="M 19 1.035156 L 356 1.035156 L 356 375 L 19 375 Z M 19 1.035156 " clip-rule="nonzero"/></clipPath><clipPath id="eb85d4eb31"><path d="M 19 1.035156 L 352 1.035156 L 352 281 L 19 281 Z M 19 1.035156 " clip-rule="nonzero"/></clipPath><clipPath id="e8b99e6e90"><path d="M 311.175781 133.703125 L 337.507812 133.703125 L 337.507812 149.058594 L 311.175781 149.058594 Z M 311.175781 133.703125 " clip-rule="nonzero"/></clipPath><clipPath id="57e66c86f4"><path d="M 318.855469 133.703125 L 329.824219 133.703125 C 331.859375 133.703125 333.8125 134.511719 335.25 135.953125 C 336.691406 137.394531 337.5 139.347656 337.5 141.382812 C 337.5 143.417969 336.691406 145.371094 335.25 146.8125 C 333.8125 148.25 331.859375 149.058594 329.824219 149.058594 L 318.855469 149.058594 C 316.816406 149.058594 314.867188 148.25 313.425781 146.8125 C 311.984375 145.371094 311.175781 143.417969 311.175781 141.382812 C 311.175781 139.347656 311.984375 137.394531 313.425781 135.953125 C 314.867188 134.511719 316.816406 133.703125 318.855469 133.703125 Z M 318.855469 133.703125 " clip-rule="nonzero"/></clipPath></defs><g clip-path="url(#cf0a958c65)"><path fill="#00c853" d="M 177.691406 4.460938 C 183.703125 1.082031 191.109375 1.082031 197.113281 4.460938 C 226.828125 21.160156 316.242188 71.425781 345.964844 88.125 C 351.980469 91.496094 355.683594 97.738281 355.683594 104.496094 C 355.683594 137.894531 355.683594 238.417969 355.683594 271.816406 C 355.683594 278.574219 351.980469 284.820312 345.964844 288.199219 C 316.253906 304.898438 226.835938 355.164062 197.113281 371.863281 C 191.097656 375.242188 183.695312 375.242188 177.691406 371.863281 C 147.976562 355.164062 58.558594 304.898438 28.835938 288.199219 C 22.832031 284.820312 19.128906 278.582031 19.128906 271.824219 C 19.128906 238.425781 19.128906 137.902344 19.128906 104.503906 C 19.128906 97.746094 22.832031 91.503906 28.847656 88.125 C 58.550781 71.425781 147.984375 21.160156 177.691406 4.460938 Z M 177.691406 4.460938 " fill-opacity="1" fill-rule="nonzero"/></g><g clip-path="url(#eb85d4eb31)"><path fill="#69f0ae" d="M 21.824219 280.429688 C 19.46875 277.269531 19.128906 274.273438 19.128906 270.238281 C 19.128906 237.035156 19.128906 137.085938 19.128906 103.875 C 19.128906 97.152344 22.824219 90.945312 28.820312 87.59375 C 58.425781 70.992188 147.542969 21.015625 177.148438 4.40625 C 183.144531 1.042969 191.269531 1.117188 197.261719 4.476562 C 226.871094 21.078125 315.6875 70.625 345.292969 87.230469 C 347.683594 88.578125 349.507812 90.199219 351.140625 92.335938 Z M 21.824219 280.429688 " fill-opacity="1" fill-rule="nonzero"/></g><path fill="#ffffff" d="M 187.40625 64.003906 C 118.945312 64.003906 63.414062 119.609375 63.414062 188.160156 C 63.414062 256.714844 118.945312 312.320312 187.40625 312.320312 C 255.867188 312.320312 311.398438 256.714844 311.398438 188.160156 C 311.398438 119.609375 255.867188 64.003906 187.40625 64.003906 Z M 187.40625 250.242188 C 153.21875 250.242188 125.410156 222.394531 125.410156 188.160156 C 125.410156 153.929688 153.21875 126.082031 187.40625 126.082031 C 221.59375 126.082031 249.402344 153.929688 249.402344 188.160156 C 249.402344 222.394531 221.59375 250.242188 187.40625 250.242188 Z M 187.40625 250.242188 " fill-opacity="1" fill-rule="nonzero"/><path fill="#00e676" d="M 351.121094 92.425781 C 355.691406 96.710938 355.601562 103.164062 355.601562 108.246094 C 355.601562 141.902344 355.320312 237.628906 355.683594 271.285156 C 355.71875 274.796875 354.558594 278.496094 352.820312 281.28125 L 183.800781 188.160156 Z M 351.121094 92.425781 " fill-opacity="1" fill-rule="nonzero"/><path fill="#ffffff" d="M 275.972656 152.6875 L 284.828125 152.6875 L 284.828125 223.636719 L 275.972656 223.636719 Z M 302.542969 152.6875 L 311.398438 152.6875 L 311.398438 223.636719 L 302.542969 223.636719 Z M 302.542969 152.6875 " fill-opacity="1" fill-rule="nonzero"/><path fill="#ffffff" d="M 258.257812 197.03125 L 329.113281 197.03125 L 329.113281 205.898438 L 258.257812 205.898438 Z M 258.257812 170.425781 L 329.113281 170.425781 L 329.113281 179.292969 L 258.257812 179.292969 Z M 258.257812 170.425781 " fill-opacity="1" fill-rule="nonzero"/><g clip-path="url(#e8b99e6e90)"><g clip-path="url(#57e66c86f4)"><path fill="#00e676" d="M 311.175781 133.703125 L 337.507812 133.703125 L 337.507812 149.058594 L 311.175781 149.058594 Z M 311.175781 133.703125 " fill-opacity="1" fill-rule="nonzero"/></g></g></svg>