<svg xmlns="http://www.w3.org/2000/svg" xmlns:xlink="http://www.w3.org/1999/xlink" width="500" zoomAndPan="magnify" viewBox="0 0 375 374.999991" height="500" preserveAspectRatio="xMidYMid meet" version="1.0"><defs><filter x="0%" y="0%" width="100%" height="100%" id="ccac46e6d6"><feColorMatrix values="0 0 0 0 1 0 0 0 0 1 0 0 0 0 1 0 0 0 1 0" color-interpolation-filters="sRGB"/></filter><clipPath id="8ff94a29c4"><path d="M 114.816406 91.421875 L 375 91.421875 L 375 374.921875 L 114.816406 374.921875 Z M 114.816406 91.421875 " clip-rule="nonzero"/></clipPath><clipPath id="c4087e79a6"><path d="M 0.277344 0 L 264.277344 0 L 264.277344 300 L 0.277344 300 Z M 0.277344 0 " clip-rule="nonzero"/></clipPath><mask id="c39ac98cba"><g filter="url(#ccac46e6d6)"><rect x="-37.5" width="450" fill="#000000" y="-37.499999" height="449.999989" fill-opacity="0.51"/></g></mask><clipPath id="8604cbf517"><path d="M 0.816406 0.421875 L 261 0.421875 L 261 283.921875 L 0.816406 283.921875 Z M 0.816406 0.421875 " clip-rule="nonzero"/></clipPath><clipPath id="8c21321e27"><rect x="0" width="261" y="0" height="284"/></clipPath></defs><g clip-path="url(#8ff94a29c4)"><path fill="#2196f3" d="M 373.421875 93.359375 C 372.859375 92.742188 372.199219 92.261719 371.433594 91.925781 C 370.671875 91.585938 369.871094 91.417969 369.035156 91.421875 L 120.84375 91.421875 C 120.429688 91.417969 120.023438 91.460938 119.617188 91.542969 C 119.210938 91.628906 118.816406 91.753906 118.4375 91.917969 C 118.058594 92.085938 117.703125 92.289062 117.367188 92.53125 C 117.03125 92.773438 116.722656 93.046875 116.445312 93.355469 C 116.164062 93.660156 115.921875 93.992188 115.710938 94.351562 C 115.503906 94.707031 115.335938 95.082031 115.203125 95.476562 C 115.074219 95.867188 114.988281 96.269531 114.941406 96.683594 C 114.898438 97.09375 114.894531 97.507812 114.9375 97.917969 L 138.574219 334.167969 C 138.628906 334.734375 138.765625 335.28125 138.980469 335.808594 C 139.195312 336.335938 139.480469 336.824219 139.835938 337.269531 C 140.191406 337.714844 140.601562 338.101562 141.070312 338.425781 C 141.535156 338.753906 142.039062 339.007812 142.582031 339.1875 L 248.949219 374.625 C 249.566406 374.824219 250.199219 374.925781 250.851562 374.921875 C 251.566406 374.921875 252.261719 374.796875 252.929688 374.542969 L 347.480469 339.105469 C 347.996094 338.914062 348.480469 338.65625 348.925781 338.328125 C 349.371094 338 349.761719 337.621094 350.101562 337.183594 C 350.4375 336.746094 350.710938 336.273438 350.917969 335.761719 C 351.121094 335.246094 351.253906 334.71875 351.308594 334.167969 L 374.945312 97.917969 C 375.027344 97.085938 374.933594 96.269531 374.667969 95.476562 C 374.402344 94.683594 373.988281 93.976562 373.421875 93.359375 Z M 373.421875 93.359375 " fill-opacity="1" fill-rule="nonzero"/></g><path fill="#fafafa" d="M 250.851562 315.859375 C 250.210938 315.859375 249.589844 315.757812 248.984375 315.5625 L 195.800781 297.84375 C 195.304688 297.679688 194.84375 297.453125 194.410156 297.167969 C 193.976562 296.882812 193.585938 296.542969 193.242188 296.15625 C 192.898438 295.765625 192.609375 295.339844 192.378906 294.875 C 192.144531 294.410156 191.980469 293.921875 191.875 293.414062 L 185.964844 263.882812 C 185.886719 263.503906 185.847656 263.121094 185.847656 262.730469 C 185.84375 262.34375 185.878906 261.957031 185.953125 261.578125 C 186.027344 261.195312 186.136719 260.828125 186.285156 260.46875 C 186.429688 260.109375 186.613281 259.765625 186.824219 259.445312 C 187.039062 259.121094 187.285156 258.820312 187.554688 258.542969 C 187.828125 258.269531 188.125 258.023438 188.449219 257.804688 C 188.769531 257.585938 189.109375 257.402344 189.46875 257.253906 C 189.824219 257.105469 190.195312 256.988281 190.574219 256.910156 C 190.957031 256.835938 191.339844 256.792969 191.726562 256.792969 C 192.117188 256.789062 192.5 256.828125 192.882812 256.902344 C 193.261719 256.972656 193.632812 257.085938 193.992188 257.230469 C 194.351562 257.378906 194.691406 257.558594 195.015625 257.773438 C 195.339844 257.988281 195.640625 258.230469 195.917969 258.503906 C 196.191406 258.777344 196.4375 259.074219 196.65625 259.394531 C 196.875 259.714844 197.058594 260.054688 197.207031 260.414062 C 197.355469 260.773438 197.472656 261.140625 197.546875 261.519531 L 202.785156 287.6875 L 250.730469 303.691406 L 292.878906 287.898438 L 314.742188 162.296875 L 179.9375 162.296875 C 179.550781 162.296875 179.167969 162.257812 178.785156 162.183594 C 178.40625 162.105469 178.035156 161.996094 177.675781 161.847656 C 177.320312 161.699219 176.976562 161.515625 176.65625 161.300781 C 176.332031 161.085938 176.035156 160.839844 175.761719 160.566406 C 175.484375 160.292969 175.242188 159.992188 175.023438 159.671875 C 174.808594 159.347656 174.628906 159.007812 174.480469 158.648438 C 174.332031 158.292969 174.21875 157.921875 174.144531 157.542969 C 174.066406 157.160156 174.03125 156.777344 174.03125 156.390625 C 174.03125 156 174.066406 155.617188 174.144531 155.238281 C 174.21875 154.855469 174.332031 154.488281 174.480469 154.128906 C 174.628906 153.769531 174.808594 153.429688 175.023438 153.109375 C 175.242188 152.785156 175.484375 152.488281 175.761719 152.214844 C 176.035156 151.9375 176.332031 151.695312 176.65625 151.480469 C 176.976562 151.261719 177.320312 151.082031 177.675781 150.933594 C 178.035156 150.785156 178.40625 150.671875 178.785156 150.597656 C 179.167969 150.519531 179.550781 150.484375 179.9375 150.484375 L 321.761719 150.484375 C 322.195312 150.484375 322.621094 150.53125 323.039062 150.621094 C 323.460938 150.714844 323.867188 150.851562 324.257812 151.035156 C 324.648438 151.214844 325.015625 151.4375 325.359375 151.699219 C 325.703125 151.960938 326.011719 152.257812 326.289062 152.585938 C 326.566406 152.917969 326.804688 153.273438 327.003906 153.65625 C 327.207031 154.039062 327.359375 154.4375 327.472656 154.851562 C 327.585938 155.269531 327.652344 155.691406 327.671875 156.121094 C 327.691406 156.554688 327.664062 156.980469 327.589844 157.40625 L 303.953125 293.25 C 303.769531 294.28125 303.347656 295.199219 302.679688 296.003906 C 302.007812 296.808594 301.183594 297.394531 300.207031 297.761719 L 252.929688 315.480469 C 252.261719 315.734375 251.566406 315.859375 250.851562 315.859375 Z M 250.851562 315.859375 " fill-opacity="1" fill-rule="nonzero"/><path fill="#fafafa" d="M 309.945312 221.359375 L 185.847656 221.359375 C 185.460938 221.359375 185.074219 221.320312 184.695312 221.246094 C 184.316406 221.167969 183.945312 221.058594 183.585938 220.910156 C 183.226562 220.761719 182.886719 220.578125 182.566406 220.363281 C 182.242188 220.148438 181.945312 219.902344 181.667969 219.628906 C 181.394531 219.355469 181.148438 219.054688 180.933594 218.734375 C 180.71875 218.410156 180.535156 218.070312 180.386719 217.710938 C 180.238281 217.355469 180.128906 216.984375 180.050781 216.605469 C 179.976562 216.222656 179.9375 215.839844 179.9375 215.453125 C 179.9375 215.0625 179.976562 214.679688 180.050781 214.300781 C 180.128906 213.917969 180.238281 213.550781 180.386719 213.191406 C 180.535156 212.832031 180.71875 212.492188 180.933594 212.171875 C 181.148438 211.847656 181.394531 211.550781 181.667969 211.277344 C 181.945312 211 182.242188 210.757812 182.566406 210.542969 C 182.886719 210.324219 183.226562 210.144531 183.585938 209.996094 C 183.945312 209.847656 184.316406 209.734375 184.695312 209.660156 C 185.074219 209.582031 185.460938 209.546875 185.847656 209.546875 L 309.945312 209.546875 C 310.332031 209.546875 310.714844 209.582031 311.097656 209.660156 C 311.476562 209.734375 311.847656 209.847656 312.203125 209.996094 C 312.5625 210.144531 312.902344 210.324219 313.226562 210.542969 C 313.550781 210.757812 313.847656 211 314.121094 211.277344 C 314.398438 211.550781 314.640625 211.847656 314.855469 212.171875 C 315.074219 212.492188 315.253906 212.832031 315.402344 213.191406 C 315.550781 213.550781 315.664062 213.917969 315.738281 214.300781 C 315.816406 214.679688 315.851562 215.0625 315.851562 215.453125 C 315.851562 215.839844 315.816406 216.222656 315.738281 216.605469 C 315.664062 216.984375 315.550781 217.355469 315.402344 217.710938 C 315.253906 218.070312 315.074219 218.410156 314.855469 218.734375 C 314.640625 219.054688 314.398438 219.355469 314.121094 219.628906 C 313.847656 219.902344 313.550781 220.148438 313.226562 220.363281 C 312.902344 220.578125 312.5625 220.761719 312.203125 220.910156 C 311.847656 221.058594 311.476562 221.167969 311.097656 221.246094 C 310.714844 221.320312 310.332031 221.359375 309.945312 221.359375 Z M 309.945312 221.359375 " fill-opacity="1" fill-rule="nonzero"/><g clip-path="url(#c4087e79a6)"><path fill="#e44d26" d="M 264.207031 0.539062 L 240.175781 270.042969 L 132.164062 300.023438 L 24.449219 270.085938 L 0.445312 0.539062 L 264.199219 0.535156 L 264.210938 0.535156 Z M 264.207031 0.539062 " fill-opacity="1" fill-rule="nonzero"/></g><path fill="#f16529" d="M 132.328125 277.109375 L 219.613281 252.886719 L 240.148438 22.582031 L 132.328125 22.578125 Z M 132.328125 277.109375 " fill-opacity="1" fill-rule="nonzero"/><path fill="#ebebeb" d="M 85.617188 88.695312 L 132.328125 88.695312 L 132.328125 55.632812 L 49.527344 55.632812 L 50.316406 64.503906 L 58.433594 155.605469 L 132.328125 155.605469 L 132.328125 122.554688 L 88.632812 122.554688 Z M 85.617188 88.695312 " fill-opacity="1" fill-rule="nonzero"/><path fill="#ebebeb" d="M 93.058594 172.136719 L 59.910156 172.136719 L 64.535156 224.046875 L 132.171875 242.84375 L 132.328125 242.804688 L 132.328125 208.40625 L 132.183594 208.449219 L 95.410156 198.5 Z M 93.058594 172.136719 " fill-opacity="1" fill-rule="nonzero"/><path fill="#ffffff" d="M 132.214844 155.605469 L 172.878906 155.605469 L 169.042969 198.480469 L 132.214844 208.4375 L 132.214844 242.824219 L 199.90625 224.046875 L 200.402344 218.457031 L 208.167969 131.425781 L 208.972656 122.554688 L 132.214844 122.554688 Z M 132.214844 155.605469 " fill-opacity="1" fill-rule="nonzero"/><path fill="#ffffff" d="M 132.214844 88.609375 L 132.214844 88.695312 L 211.972656 88.695312 L 212.632812 81.261719 L 214.144531 64.503906 L 214.929688 55.632812 L 132.214844 55.632812 Z M 132.214844 88.609375 " fill-opacity="1" fill-rule="nonzero"/><g mask="url(#c39ac98cba)"><g transform="matrix(1, 0, 0, 1, 114, 91)"><g clip-path="url(#8c21321e27)"><g clip-path="url(#8604cbf517)"><path fill="#2196f3" d="M 259.421875 2.359375 C 258.859375 1.742188 258.199219 1.261719 257.433594 0.925781 C 256.671875 0.585938 255.871094 0.417969 255.035156 0.421875 L 6.84375 0.421875 C 6.429688 0.417969 6.023438 0.460938 5.617188 0.542969 C 5.210938 0.628906 4.816406 0.753906 4.4375 0.917969 C 4.058594 1.085938 3.703125 1.289062 3.367188 1.53125 C 3.03125 1.773438 2.722656 2.046875 2.445312 2.355469 C 2.164062 2.660156 1.921875 2.992188 1.710938 3.351562 C 1.503906 3.707031 1.335938 4.082031 1.203125 4.476562 C 1.074219 4.867188 0.988281 5.269531 0.941406 5.683594 C 0.898438 6.09375 0.894531 6.507812 0.9375 6.917969 L 24.574219 243.167969 C 24.628906 243.734375 24.765625 244.28125 24.980469 244.808594 C 25.195312 245.335938 25.480469 245.824219 25.835938 246.269531 C 26.191406 246.714844 26.601562 247.101562 27.070312 247.425781 C 27.535156 247.753906 28.039062 248.007812 28.582031 248.1875 L 134.949219 283.625 C 135.566406 283.824219 136.199219 283.925781 136.851562 283.921875 C 137.566406 283.921875 138.261719 283.796875 138.929688 283.542969 L 233.480469 248.105469 C 233.996094 247.914062 234.480469 247.65625 234.925781 247.328125 C 235.371094 247 235.761719 246.621094 236.101562 246.183594 C 236.4375 245.746094 236.710938 245.273438 236.917969 244.761719 C 237.121094 244.246094 237.253906 243.71875 237.308594 243.167969 L 260.945312 6.917969 C 261.027344 6.085938 260.933594 5.269531 260.667969 4.476562 C 260.402344 3.683594 259.988281 2.976562 259.421875 2.359375 Z M 259.421875 2.359375 " fill-opacity="1" fill-rule="nonzero"/></g><path fill="#fafafa" d="M 136.851562 224.859375 C 136.210938 224.859375 135.589844 224.757812 134.984375 224.5625 L 81.800781 206.84375 C 81.304688 206.679688 80.84375 206.453125 80.410156 206.167969 C 79.976562 205.882812 79.585938 205.542969 79.242188 205.15625 C 78.898438 204.765625 78.609375 204.339844 78.378906 203.875 C 78.144531 203.410156 77.980469 202.921875 77.875 202.414062 L 71.964844 172.882812 C 71.886719 172.503906 71.847656 172.121094 71.847656 171.730469 C 71.84375 171.34375 71.878906 170.957031 71.953125 170.578125 C 72.027344 170.195312 72.136719 169.828125 72.285156 169.46875 C 72.429688 169.109375 72.613281 168.765625 72.824219 168.445312 C 73.039062 168.121094 73.285156 167.820312 73.554688 167.542969 C 73.828125 167.269531 74.125 167.023438 74.449219 166.804688 C 74.769531 166.585938 75.109375 166.402344 75.46875 166.253906 C 75.824219 166.105469 76.195312 165.988281 76.574219 165.910156 C 76.957031 165.835938 77.339844 165.792969 77.726562 165.792969 C 78.117188 165.789062 78.5 165.828125 78.882812 165.902344 C 79.261719 165.972656 79.632812 166.085938 79.992188 166.230469 C 80.351562 166.378906 80.691406 166.558594 81.015625 166.773438 C 81.339844 166.988281 81.640625 167.230469 81.917969 167.503906 C 82.191406 167.777344 82.4375 168.074219 82.65625 168.394531 C 82.875 168.714844 83.058594 169.054688 83.207031 169.414062 C 83.355469 169.773438 83.472656 170.140625 83.546875 170.519531 L 88.785156 196.6875 L 136.730469 212.691406 L 178.878906 196.898438 L 200.742188 71.296875 L 65.9375 71.296875 C 65.550781 71.296875 65.167969 71.257812 64.785156 71.183594 C 64.40625 71.105469 64.035156 70.996094 63.675781 70.847656 C 63.320312 70.699219 62.976562 70.515625 62.65625 70.300781 C 62.332031 70.085938 62.035156 69.839844 61.761719 69.566406 C 61.484375 69.292969 61.242188 68.992188 61.023438 68.671875 C 60.808594 68.347656 60.628906 68.007812 60.480469 67.648438 C 60.332031 67.292969 60.21875 66.921875 60.144531 66.542969 C 60.066406 66.160156 60.03125 65.777344 60.03125 65.390625 C 60.03125 65 60.066406 64.617188 60.144531 64.238281 C 60.21875 63.855469 60.332031 63.488281 60.480469 63.128906 C 60.628906 62.769531 60.808594 62.429688 61.023438 62.109375 C 61.242188 61.785156 61.484375 61.488281 61.761719 61.214844 C 62.035156 60.9375 62.332031 60.695312 62.65625 60.480469 C 62.976562 60.261719 63.320312 60.082031 63.675781 59.933594 C 64.035156 59.785156 64.40625 59.671875 64.785156 59.597656 C 65.167969 59.519531 65.550781 59.484375 65.9375 59.484375 L 207.761719 59.484375 C 208.195312 59.484375 208.621094 59.53125 209.039062 59.621094 C 209.460938 59.714844 209.867188 59.851562 210.257812 60.035156 C 210.648438 60.214844 211.015625 60.4375 211.359375 60.699219 C 211.703125 60.960938 212.011719 61.257812 212.289062 61.585938 C 212.566406 61.917969 212.804688 62.273438 213.003906 62.65625 C 213.207031 63.039062 213.359375 63.4375 213.472656 63.851562 C 213.585938 64.269531 213.652344 64.691406 213.671875 65.121094 C 213.691406 65.554688 213.664062 65.980469 213.589844 66.40625 L 189.953125 202.25 C 189.769531 203.28125 189.347656 204.199219 188.679688 205.003906 C 188.007812 205.808594 187.183594 206.394531 186.207031 206.761719 L 138.929688 224.480469 C 138.261719 224.734375 137.566406 224.859375 136.851562 224.859375 Z M 136.851562 224.859375 " fill-opacity="1" fill-rule="nonzero"/><path fill="#fafafa" d="M 195.945312 130.359375 L 71.847656 130.359375 C 71.460938 130.359375 71.074219 130.320312 70.695312 130.246094 C 70.316406 130.167969 69.945312 130.058594 69.585938 129.910156 C 69.226562 129.761719 68.886719 129.578125 68.566406 129.363281 C 68.242188 129.148438 67.945312 128.902344 67.667969 128.628906 C 67.394531 128.355469 67.148438 128.054688 66.933594 127.734375 C 66.71875 127.410156 66.535156 127.070312 66.386719 126.710938 C 66.238281 126.355469 66.128906 125.984375 66.050781 125.605469 C 65.976562 125.222656 65.9375 124.839844 65.9375 124.453125 C 65.9375 124.0625 65.976562 123.679688 66.050781 123.300781 C 66.128906 122.917969 66.238281 122.550781 66.386719 122.191406 C 66.535156 121.832031 66.71875 121.492188 66.933594 121.171875 C 67.148438 120.847656 67.394531 120.550781 67.667969 120.277344 C 67.945312 120 68.242188 119.757812 68.566406 119.542969 C 68.886719 119.324219 69.226562 119.144531 69.585938 118.996094 C 69.945312 118.847656 70.316406 118.734375 70.695312 118.660156 C 71.074219 118.582031 71.460938 118.546875 71.847656 118.546875 L 195.945312 118.546875 C 196.332031 118.546875 196.714844 118.582031 197.097656 118.660156 C 197.476562 118.734375 197.847656 118.847656 198.203125 118.996094 C 198.5625 119.144531 198.902344 119.324219 199.226562 119.542969 C 199.550781 119.757812 199.847656 120 200.121094 120.277344 C 200.398438 120.550781 200.640625 120.847656 200.855469 121.171875 C 201.074219 121.492188 201.253906 121.832031 201.402344 122.191406 C 201.550781 122.550781 201.664062 122.917969 201.738281 123.300781 C 201.816406 123.679688 201.851562 124.0625 201.851562 124.453125 C 201.851562 124.839844 201.816406 125.222656 201.738281 125.605469 C 201.664062 125.984375 201.550781 126.355469 201.402344 126.710938 C 201.253906 127.070312 201.074219 127.410156 200.855469 127.734375 C 200.640625 128.054688 200.398438 128.355469 200.121094 128.628906 C 199.847656 128.902344 199.550781 129.148438 199.226562 129.363281 C 198.902344 129.578125 198.5625 129.761719 198.203125 129.910156 C 197.847656 130.058594 197.476562 130.167969 197.097656 130.246094 C 196.714844 130.320312 196.332031 130.359375 195.945312 130.359375 Z M 195.945312 130.359375 " fill-opacity="1" fill-rule="nonzero"/></g></g></g></svg>